# xmcd
#
# Track frame offsets:
#	150
#	14720
#	30400
#	36040
#	70807
#	88565
#	107125
#	126122
#	142140
#	158055
#	176260
#	188022
#	209795
#	216462
#	239815
#
# Disc length: 3437 seconds
#
# Revision: 5
# Processed by: cddbd v1.5.2PL0 Copyright (c) Steve Scherf et al.
# Submitted via: audiograbber 1.83.01
#
DISCID=de0d6b0f
DTITLE=Calexico - Hot Rail
DYEAR=2000
DGENRE=Americana
TTITLE0=El Picador
TTITLE1=Ballad Of Cable Hogue
TTITLE2=Ritual Road Map
TTITLE3=Fade
TTITLE4=Crystal Frontier [bonus track]
TTITLE5=Untitled III
TTITLE6=Sonic Wind
TTITLE7=Muleta
TTITLE8=Mid-Town
TTITLE9=Service And Repair
TTITLE10=Untitled II
TTITLE11=Drenched
TTITLE12=16 Track Scratch
TTITLE13=Tres Avisos
TTITLE14=Hot Rail
EXTD=
EXTT0=
EXTT1=
EXTT2=
EXTT3=
EXTT4=
EXTT5=
EXTT6=
EXTT7=
EXTT8=
EXTT9=
EXTT10=
EXTT11=
EXTT12=
EXTT13=
EXTT14=
PLAYORDER=
